#!OML:ASF F:\VICON\USERDATA\INSTALL\rory3\rory3.ASF
:FULLY-SPECIFIED
:DEGREES
1918
root 13.7807 17.6433 -9.1033 -0.692835 -66.8124 361.069
lowerback 11.2621 1.6505 1.32795
upperback 1.35849 2.38033 1.3002
thorax -4.89274 1.14128 0.247918
lowerneck -16.7856 -2.21248 -10.5729
upperneck 37.6227 -3.00521 6.10671
head 16.6657 -2.21475 3.95103
rclavicle 3.13086e-014 1.11319e-014
rhumerus -31.2273 -13.0876 -72.3929
rradius 34.993
rwrist 4.86663
rhand -15.0987 9.29608
rfingers 7.12502
rthumb 11.0696 -20.392
lclavicle 3.13086e-014 1.11319e-014
lhumerus -35.1264 10.8842 82.1643
lradius 32.9303
lwrist -1.66815
lhand -22.129 21.2013
lfingers 7.12502
lthumb 4.2842 51.1379
rfemur -5.19013 5.90098 9.79292
rtibia 26.4225
rfoot -20.8644 13.4687
rtoes -6.76274
lfemur -8.16225 -14.7047 -4.95961
ltibia 18.0844
lfoot -9.63071 -14.6684
ltoes -16.7337
1919
root 13.8148 17.6381 -8.99223 -1.39523 -67.4015 361.804
lowerback 11.2114 1.65938 1.19492
upperback 1.41959 2.3699 1.24552
thorax -4.80357 1.13868 0.269745
lowerneck -16.8049 -2.23063 -10.5909
upperneck 37.5713 -3.01982 6.08542
head 16.6454 -2.22601 3.93909
rclavicle 3.67752e-015 -1.51076e-014
rhumerus -31.065 -13.4686 -72.1395
rradius 34.9583
rwrist 5.14088
rhand -15.3609 9.60988
rfingers 7.12502
rthumb 10.8167 -20.0916
lclavicle 3.67752e-015 -1.51076e-014
lhumerus -34.979 10.6281 82.3238
lradius 32.9041
lwrist -1.43823
lhand -21.9861 21.2943
lfingers 7.12502
lthumb 4.42222 51.2281
rfemur -5.19635 6.02329 9.01162
rtibia 26.2074
rfoot -20.6872 13.8763
rtoes -7.71201
lfemur -7.95807 -13.9504 -5.79995
ltibia 18.356
lfoot -10.4473 -14.3619
ltoes -17.1483
1920
root 13.852 17.63 -8.88141 -1.54125 -67.9789 361.987
lowerback 11.2009 1.65477 1.34706
upperback 1.40571 2.37987 1.198
thorax -4.80397 1.14036 0.133373
lowerneck -16.7335 -2.2126 -10.5833
upperneck 37.5435 -3.0491 6.17372
head 16.617 -2.22796 3.96999
rclavicle 7.85199e-015 -7.15625e-015
rhumerus -31.0714 -13.6907 -72.0131
rradius 35.0471
rwrist 5.15165
rhand -15.4009 9.57035
rfingers 7.12502
rthumb 10.7781 -20.1331
lclavicle 7.85199e-015 -7.15625e-015
lhumerus -34.966 10.4226 82.3668
lradius 32.8595
lwrist -1.85245
lhand -22.0737 21.2296
lfingers 7.12502
lthumb 4.33758 51.1652
rfemur -5.25113 6.15263 8.49147
rtibia 25.9498
rfoot -20.5521 13.967
rtoes -9.01174
lfemur -7.79868 -13.1449 -6.37792
ltibia 18.6489
lfoot -11.0194 -14.015
ltoes -16.378
1921
root 13.8827 17.6266 -8.76926 -1.99 -68.483 362.476
lowerback 11.1061 1.69807 1.33074
upperback 1.42044 2.4315 1.16689
thorax -4.73487 1.16656 0.105574
lowerneck -16.6253 -2.21857 -10.4626
upperneck 37.4867 -3.08621 6.08788
head 16.5596 -2.23882 3.89879
rclavicle 6.34123e-014 -7.15625e-015
rhumerus -31.1161 -13.7588 -71.8344
rradius 35.1954
rwrist 4.86954
rhand -15.8416 9.3567
rfingers 7.12502
rthumb 10.353 -20.3684
lclavicle 6.34123e-014 -7.15625e-015
lhumerus -34.9484 10.0585 82.6381
lradius 32.8018
lwrist -2.21367
lhand -22.6119 21.0612
lfingers 7.12502
lthumb 3.81786 51.0067
rfemur -5.22962 6.40313 7.87339
rtibia 25.6399
rfoot -20.4201 13.8379
rtoes -10.0811
lfemur -7.63972 -12.5243 -7.19502
ltibia 18.9572
lfoot -11.9775 -12.9644
ltoes -19.6133
1922
root 13.9108 17.6252 -8.65499 -2.84356 -68.8904 363.301
lowerback 11.0848 1.72394 1.18107
upperback 1.46309 2.44513 1.15108
thorax -4.6839 1.17609 0.172532
lowerneck -16.4974 -2.26651 -10.3861
upperneck 37.3789 -3.12546 5.89376
head 16.4714 -2.26938 3.78439
rclavicle -5.397e-014 -7.95139e-015
rhumerus -31.1256 -13.6683 -71.6547
rradius 35.2968
rwrist 4.43088
rhand -16.3322 9.17904
rfingers 7.12502
rthumb 9.87967 -20.5692
lclavicle -5.397e-014 -7.95139e-015
lhumerus -34.935 9.63735 83.0267
lradius 32.8312
lwrist -2.10924
lhand -22.5923 21.2124
lfingers 7.12502
lthumb 3.83677 51.1576
rfemur -5.03237 6.82672 7.16574
rtibia 25.2683
rfoot -20.1425 13.744
rtoes -10.1167
lfemur -7.42019 -12.2675 -8.20215
ltibia 19.2725
lfoot -12.7235 -11.4492
ltoes -22.2782
1923
root 13.9447 17.6269 -8.54167 -3.76886 -69.4695 364.299
lowerback 11.1103 1.73257 1.03106
upperback 1.43688 2.4361 1.06908
thorax -4.72815 1.17364 0.171362
lowerneck -16.4579 -2.25344 -10.3861
upperneck 37.3599 -3.11614 5.88443
head 16.45 -2.2697 3.78008
rclavicle -8.5875e-014 -3.97569e-015
rhumerus -31.1433 -13.5933 -71.6232
rradius 35.4321
rwrist 4.2154
rhand -16.1213 9.06325
rfingers 7.12502
rthumb 10.0831 -20.6752
lclavicle -8.5875e-014 -3.97569e-015
lhumerus -34.9375 9.47771 83.156
lradius 32.8694
lwrist -1.87074
lhand -21.8219 21.7148
lfingers 7.12502
lthumb 4.58077 51.6453
rfemur -5.0092 7.24386 6.37298
rtibia 24.8481
rfoot -19.5971 13.9988
rtoes -8.96707
lfemur -7.28222 -11.7769 -9.22504
ltibia 19.5595
lfoot -13.2785 -9.99714
ltoes -24.3128
1924
root 13.9818 17.6339 -8.42821 -4.55738 -70.0563 365.289
lowerback 11.0242 1.71589 0.862098
upperback 1.37618 2.39192 1.00519
thorax -4.74816 1.15507 0.207806
lowerneck -16.4903 -2.17683 -10.3377
upperneck 37.3982 -3.02181 5.87493
head 16.4641 -2.22959 3.78521
rclavicle 9.0447e-015 -3.97569e-015
rhumerus -31.124 -13.8236 -71.505
rradius 35.5533
rwrist 4.3614
rhand -15.0654 9.11664
rfingers 7.12502
rthumb 11.1016 -20.5697
lclavicle 9.0447e-015 -3.97569e-015
lhumerus -34.9004 9.40659 83.2165
lradius 32.8702
lwrist -1.62029
lhand -21.6038 22.0518
lfingers 7.12502
lthumb 4.79136 51.9777
rfemur -5.14711 7.43952 5.56399
rtibia 24.3843
rfoot -18.9983 14.3171
rtoes -8.16525
lfemur -7.32191 -11.312 -10.162
ltibia 19.8248
lfoot -13.6775 -8.77636
ltoes -25.7434
